# xmcd CD database file
#
# Track frame offsets:
#	150
#	22307
#	40867
#	63012
#
# Disc length: 1086 seconds
#
# Revision: 0
# Processed by: cddbd v1.5.1PL0 Copyright (c) Steve Scherf et al.
# Submitted via: CDex 1.51
#
DISCID=2d043c04
DTITLE=金月真美 - 去りし君へ…
DYEAR=2001
DGENRE=JPop
TTITLE0=去りし君へ…
TTITLE1=ずっと ずっと
TTITLE2=去りし君へ… vocalless ver.
TTITLE3=ずっと ずっと vocalless ver.
EXTD=YEAR: 2001
EXTT0=
EXTT1=
EXTT2=
EXTT3=
PLAYORDER=
